<?xml version="1.0" encoding="UTF-8" standalone="no"?>
<!-- Created with Inkscape (http://www.inkscape.org/) -->

<svg
   width="255.99998"
   height="255.99998"
   viewBox="0 0 67.733328 67.733329"
   version="1.1"
   id="svg1"
   xml:space="preserve"
   xmlns="http://www.w3.org/2000/svg"
   xmlns:svg="http://www.w3.org/2000/svg"><defs
     id="defs1" /><g
     id="layer1"><path
       style="fill:#666666;fill-opacity:1;stroke:none;stroke-width:0.0505566"
       d="m 53.990986,61.706046 1.415585,-1.415586 -3.741188,-3.741187 v -5.662339 h -2.022264 v 6.471244 z"
       id="path6" /><path
       style="fill:none;stroke:#666666;stroke-width:2.2;stroke-dasharray:none;stroke-opacity:1"
       d="m 51.008442,64.496888 q -3.401662,0 -5.799218,-2.397556 -2.397557,-2.397557 -2.397557,-5.799219 0,-3.401661 2.397557,-5.799218 2.397556,-2.397556 5.799218,-2.397556 3.401662,0 5.799218,2.397556 2.397556,2.397557 2.397556,5.799218 0,3.401662 -2.397556,5.799219 -2.397556,2.397556 -5.799218,2.397556 z"
       id="path5" /><path
       style="fill:#666666;fill-opacity:1;stroke:none;stroke-width:0.0882517"
       d="M 42.352222,65.128714 H 14.120269 c -1.941537,0 -3.60361,-0.691304 -4.9862195,-2.073914 C 7.7514395,61.67219 7.060135,60.010117 7.060135,58.06858 V 12.177706 H 3.5300678 V 5.1175711 H 21.180404 V 1.5875038 H 42.360807 V 5.1175711 H 60.011143 V 12.177706 H 56.481076 V 45.348662 C 55.48089,45.05449 54.31891,44.804443 52.995134,44.598523 51.671359,44.392602 50.479962,44.289642 49.420941,44.289642 V 12.177706 H 14.120269 V 58.06858 h 24.878389 c 0.353007,1.235524 0.823682,2.456338 1.412027,3.662445 0.588344,1.206106 1.235523,2.338669 1.941537,3.397689 z"
       id="path2" /><path
       style="fill:#ffffff;stroke-width:0.0882517"
       d="M 14.120269,12.177706 V 58.06858 Z"
       id="path1" /><g
       style="fill:#666666;fill-opacity:1;stroke:none"
       id="g8"
       transform="matrix(0.03375804,0,0,0.03375804,15.566747,47.953857)"><path
         d="M 320,-320 H 800 V -720 H 320 Z m 0,80 q -33,0 -56.5,-23.5 Q 240,-287 240,-320 v -480 q 0,-33 23.5,-56.5 Q 287,-880 320,-880 h 480 q 33,0 56.5,23.5 23.5,23.5 23.5,56.5 v 480 q 0,33 -23.5,56.5 Q 833,-240 800,-240 Z M 160,-80 q -33,0 -56.5,-23.5 Q 80,-127 80,-160 v -560 h 80 v 560 h 560 v 80 z m 160,-720 v 480 z"
         id="path1-0"
         style="fill:#666666;fill-opacity:1;stroke:none" /></g></g></svg>
